<svg width="1779" height="1160" xmlns="http://www.w3.org/2000/svg" xmlns:xlink="http://www.w3.org/1999/xlink" xml:space="preserve" overflow="hidden"><g transform="translate(-1310 -545)"><g><path d="M2200.5 1700.5 3033.5 982.5 3033.5 1700.5Z" stroke="#FFC000" stroke-width="6.875" stroke-linecap="butt" stroke-linejoin="miter" stroke-miterlimit="8" stroke-opacity="1" fill="#FFF500" fill-rule="evenodd" fill-opacity="1"/><path d="M1367.5 1700.5 1367.5 982.5 2200.5 1700.5Z" stroke="#FFC000" stroke-width="6.875" stroke-linecap="butt" stroke-linejoin="miter" stroke-miterlimit="8" stroke-opacity="1" fill="#FFF500" fill-rule="evenodd" fill-opacity="1"/><path d="M1663.5 1700.5 2200.5 775.5 2737.5 1700.5Z" stroke="#FFC000" stroke-width="6.875" stroke-linecap="butt" stroke-linejoin="miter" stroke-miterlimit="8" stroke-opacity="1" fill="#FFF500" fill-rule="evenodd" fill-opacity="1"/><rect x="1658" y="1387" width="297" height="309" fill="#FFF500" fill-opacity="1"/><path d="M1316.5 897C1316.5 868.557 1339.56 845.5 1368 845.5 1396.44 845.5 1419.5 868.557 1419.5 897 1419.5 925.443 1396.44 948.5 1368 948.5 1339.56 948.5 1316.5 925.443 1316.5 897Z" stroke="#FFC000" stroke-width="6.875" stroke-linecap="butt" stroke-linejoin="miter" stroke-miterlimit="8" stroke-opacity="1" fill="#FFF500" fill-rule="evenodd" fill-opacity="1"/><path d="M2981.5 897C2981.5 868.557 3004.56 845.5 3033 845.5 3061.44 845.5 3084.5 868.557 3084.5 897 3084.5 925.443 3061.44 948.5 3033 948.5 3004.56 948.5 2981.5 925.443 2981.5 897Z" stroke="#FFC000" stroke-width="6.875" stroke-linecap="butt" stroke-linejoin="miter" stroke-miterlimit="8" stroke-opacity="1" fill="#FFF500" fill-rule="evenodd" fill-opacity="1"/><path d="M2105.5 645C2105.5 592.809 2148.03 550.5 2200.5 550.5 2252.97 550.5 2295.5 592.809 2295.5 645 2295.5 697.191 2252.97 739.5 2200.5 739.5 2148.03 739.5 2105.5 697.191 2105.5 645Z" stroke="#FFC000" stroke-width="6.875" stroke-linecap="butt" stroke-linejoin="miter" stroke-miterlimit="8" stroke-opacity="1" fill="#FFF500" fill-rule="evenodd" fill-opacity="1"/><rect x="2438" y="1387" width="298" height="309" fill="#FFF500" fill-opacity="1"/><rect x="1372" y="1551" width="1656" height="83.9999" fill="#FFFFFF" fill-opacity="1"/><rect x="1372" y="1399" width="1656" height="82.9999" fill="#FFFFFF" fill-opacity="1"/></g></g></svg>